<?xml version="1.0" encoding="UTF-8" standalone="no"?>
<svg
   xmlns:dc="http://purl.org/dc/elements/1.1/"
   xmlns:cc="http://creativecommons.org/ns#"
   xmlns:rdf="http://www.w3.org/1999/02/22-rdf-syntax-ns#"
   xmlns:svg="http://www.w3.org/2000/svg"
   xmlns="http://www.w3.org/2000/svg"
   xmlns:sodipodi="http://sodipodi.sourceforge.net/DTD/sodipodi-0.dtd"
   xmlns:inkscape="http://www.inkscape.org/namespaces/inkscape"
   version="1.1"
   width="40px"
   height="40px"
   style="fill: none; width: 1905px; height: 945px;"
   id="svg8"
   sodipodi:docname="icon-save-actions-dark.svg"
   inkscape:version="0.92.3 (2405546, 2018-03-11)">
  <metadata
     id="metadata14">
    <rdf:RDF>
      <cc:Work
         rdf:about="">
        <dc:format>image/svg+xml</dc:format>
        <dc:type
           rdf:resource="http://purl.org/dc/dcmitype/StillImage" />
        <dc:title></dc:title>
      </cc:Work>
    </rdf:RDF>
  </metadata>
  <defs
     id="defs12" />
  <sodipodi:namedview
     pagecolor="#ffffff"
     bordercolor="#666666"
     borderopacity="1"
     objecttolerance="10"
     gridtolerance="10"
     guidetolerance="10"
     inkscape:pageopacity="0"
     inkscape:pageshadow="2"
     inkscape:window-width="2560"
     inkscape:window-height="1368"
     id="namedview10"
     showgrid="false"
     inkscape:zoom="8"
     inkscape:cx="50.862001"
     inkscape:cy="930.65669"
     inkscape:window-x="0"
     inkscape:window-y="35"
     inkscape:window-maximized="1"
     inkscape:current-layer="svg8" />
  <path
     d=""
     style="fill:none;stroke:#cccccc;stroke-width:0.58711195;stroke-linecap:round;stroke-linejoin:round"
     id="path2"
     inkscape:connector-curvature="0" />
  <path
     d=""
     style="fill:none;stroke:#999999;stroke-width:0.58711195;stroke-linecap:round;stroke-linejoin:round"
     id="path4"
     inkscape:connector-curvature="0" />
  <path
     d="m 3.28026,3.2802736 v 0 0 0 0 H 28.437111 M 3.28026,36.71974 v 0 V 3.2802736 M 36.678801,36.71974 v 0 H 3.28026 M 28.437111,3.2802736 v 0 l 8.24169,9.1503984 c 0.105702,5.919309 0.0455,15.829761 0,24.289068"
     style="fill:#000000;fill-opacity:0;stroke:#dedede;stroke-width:2.52456379;stroke-linecap:round;stroke-linejoin:round;stroke-miterlimit:4;stroke-dasharray:none;stroke-opacity:1"
     id="path6"
     inkscape:connector-curvature="0"
     sodipodi:nodetypes="cccccccccccccccc" />
  <path
     style="fill:none;fill-opacity:1;stroke-width:0.04261111"
     d="M 4.6107542,20.007092 V 4.4948164 h 2.3790937 2.3790937 v 4.5231067 c 0,5.1715159 -0.032202,4.7578879 0.4006708,5.1463049 0.4460726,0.400267 -0.6019869,0.364436 10.3052526,0.352355 l 9.561266,-0.0106 0.224444,-0.107625 c 0.267498,-0.128266 0.46808,-0.311634 0.612375,-0.559784 l 0.105835,-0.182028 0.01202,-4.5808699 0.01201,-4.5808797 h 0.908502 0.908503 l 1.44739,1.3047168 1.447395,1.3047269 V 21.311789 35.519348 h -2.356094 -2.356094 l -0.01176,-6.259513 -0.01176,-6.259522 -0.105836,-0.182018 C 30.328766,22.570134 30.128184,22.386776 29.860687,22.25851 l -0.224444,-0.107624 -9.559589,-0.0105 c -10.8870365,-0.0119 -9.866379,-0.0463 -10.302539,0.347115 -0.4432594,0.399838 -0.4050625,-0.24424 -0.4050625,6.830088 v 6.20175 H 6.9898479 4.6107542 Z"
     id="path827"
     inkscape:connector-curvature="0" />
  <path
     style="fill:none;fill-opacity:1;stroke-width:0.04261111"
     d="M 12.062255,8.297052 V 4.4948164 h 7.922833 7.922829 v 3.8022356 3.802226 h -7.922829 -7.922833 z m 14.086041,2.74819 c 0.309227,-0.139236 0.468483,-0.288923 0.621491,-0.584166 l 0.104813,-0.202238 6.18e-4,-1.9654461 6.2e-4,-1.9654356 -0.137274,-0.2475308 C 26.584025,5.8017833 26.417903,5.6582771 26.090269,5.5203911 l -0.224444,-0.094404 h -2.177096 -2.177096 l -0.224442,0.094404 c -0.327638,0.137886 -0.493759,0.2813922 -0.648279,0.5600344 l -0.137272,0.2475308 9.9e-4,1.9654356 c 9.29e-4,1.8549311 0.0059,1.9751261 0.08772,2.1376031 0.177092,0.351565 0.421549,0.559015 0.803789,0.6821 0.123917,0.0399 0.673857,0.0527 2.321099,0.0541 l 2.158706,0.002 0.274696,-0.123695 z"
     id="path829"
     inkscape:connector-curvature="0" />
  <ellipse
     style="fill:#fafafa;fill-opacity:1;stroke:#dedede;stroke-width:1.88038802;stroke-miterlimit:4;stroke-dasharray:none;stroke-opacity:1"
     id="path881"
     cx="19.553946"
     cy="20.520906"
     rx="4.218327"
     ry="4.223496" />
  <path
     style="fill:#ffeeaa;fill-opacity:1;stroke:#dedede;stroke-width:0.22916347;stroke-miterlimit:4;stroke-dasharray:none;stroke-opacity:1"
     d="M 4.6126355,19.978103 V 4.5553837 H 16.219182 27.825729 l 3.756234,4.1701038 3.756234,4.1701035 0.05973,2.112386 c 0.07656,2.707491 0.07649,9.402235 -1.82e-4,15.561905 l -0.06007,4.83094 H 19.975153 4.6126355 Z m 16.0759875,5.615959 c 1.87185,-0.387486 3.528738,-2.061116 3.934211,-3.973964 0.376204,-1.774768 -0.114513,-3.421479 -1.411554,-4.736793 -1.052043,-1.066864 -2.177162,-1.532018 -3.705661,-1.532018 -1.398326,0 -2.60362,0.500775 -3.600203,1.495809 -1.012451,1.010876 -1.526082,2.247879 -1.526082,3.675338 0,2.390789 1.549226,4.397784 3.886944,5.03547 0.556874,0.151904 1.775336,0.170092 2.422345,0.03616 z"
     id="path903"
     inkscape:connector-curvature="0" />
</svg>
