<?xml version="1.0" encoding="UTF-8" standalone="no"?>
<svg width="512px" height="512px" viewBox="0 0 512 512" version="1.1" xmlns="http://www.w3.org/2000/svg" xmlns:xlink="http://www.w3.org/1999/xlink">
    <!-- Generator: Sketch 3.8.3 (29802) - http://www.bohemiancoding.com/sketch -->
    <title>clion</title>
    <desc>Created with Sketch.</desc>
    <defs>
        <linearGradient x1="-0.226600985%" y1="49.9570957%" x2="115.044335%" y2="49.9570957%" id="linearGradient-1">
            <stop stop-color="#ED358C" offset="0%"></stop>
            <stop stop-color="#E9388C" offset="15.5%"></stop>
            <stop stop-color="#DE418C" offset="29.7%"></stop>
            <stop stop-color="#CC508C" offset="43.3%"></stop>
            <stop stop-color="#B2658D" offset="56.6%"></stop>
            <stop stop-color="#90808D" offset="69.7%"></stop>
            <stop stop-color="#67A18E" offset="82.6%"></stop>
            <stop stop-color="#37C78F" offset="95.1%"></stop>
            <stop stop-color="#22D88F" offset="100%"></stop>
        </linearGradient>
        <linearGradient x1="66.6666667%" y1="17.4407767%" x2="28.1086142%" y2="151.582524%" id="linearGradient-2">
            <stop stop-color="#22D88F" offset="9.1%"></stop>
            <stop stop-color="#029DE0" offset="90.3%"></stop>
        </linearGradient>
        <linearGradient x1="93.0553936%" y1="5.80704441%" x2="-9.59620991%" y2="119.701378%" id="linearGradient-3">
            <stop stop-color="#22D88F" offset="9.1%"></stop>
            <stop stop-color="#029DE0" offset="90.3%"></stop>
        </linearGradient>
        <linearGradient x1="32.8404494%" y1="48.5436409%" x2="92.9775281%" y2="58.032419%" id="linearGradient-4">
            <stop stop-color="#22D88F" offset="9.1%"></stop>
            <stop stop-color="#029DE0" offset="90.3%"></stop>
        </linearGradient>
    </defs>
    <g id="Page-1" stroke="none" stroke-width="1" fill="none" fill-rule="evenodd">
        <g id="jetbrains" transform="translate(-1074.000000, -537.000000)">
            <g id="clion" transform="translate(1074.000000, 537.000000)">
                <g>
                    <g>
                        <polyline id="Shape" fill="url(#linearGradient-1)" points="196.754286 207.725714 163.108571 221.622857 193.097143 0 311.588571 64.3657143"></polyline>
                        <polyline id="Shape" fill="url(#linearGradient-2)" points="177.737143 307.2 195.291429 0 47.5428571 92.8914286 0 376.685714"></polyline>
                        <polyline id="Shape" fill="url(#linearGradient-3)" points="501.76 153.6 435.931429 19.7485714 311.588571 64.3657143 220.16 166.034286 0 376.685714 166.034286 497.371429 374.491429 309.394286"></polyline>
                        <polyline id="Shape" fill="url(#linearGradient-4)" points="215.04 218.697143 186.514286 394.24 303.542857 484.205714 431.542857 512 512 329.142857"></polyline>
                        <g id="Group" transform="translate(95.085714, 95.085714)">
                            <polygon id="Shape" fill="#000000" points="2.92571429 2.92571429 318.902857 2.92571429 318.902857 318.902857 2.92571429 318.902857"></polygon>
                            <path d="M32.9142857,259.657143 L151.405714,259.657143 L151.405714,279.405714 L32.9142857,279.405714 L32.9142857,259.657143 Z M30.72,110.445714 C30.72,73.1428571 58.5142857,42.4228571 98.7428571,42.4228571 C123.611429,42.4228571 138.24,50.4685714 150.674286,62.9028571 L132.388571,84.1142857 C122.148571,74.6057143 111.908571,69.4857143 98.7428571,69.4857143 C76.8,69.4857143 60.7085714,87.7714286 60.7085714,110.445714 L60.7085714,109.714286 C60.7085714,132.388571 76.0685714,150.674286 98.7428571,150.674286 C113.371429,150.674286 122.88,144.822857 133.12,135.314286 L151.405714,153.6 C138.24,168.228571 122.88,177.005714 98.0114286,177.005714 C59.2457143,177.737143 30.72,147.748571 30.72,110.445714 L30.72,110.445714 Z M171.154286,44.6171429 L199.68,44.6171429 L199.68,151.405714 L256.731429,151.405714 L256.731429,175.542857 L171.154286,175.542857 L171.154286,44.6171429 L171.154286,44.6171429 Z" id="Shape" fill="#FFFFFF"></path>
                        </g>
                    </g>
                </g>
            </g>
        </g>
    </g>
</svg>