<?xml version="1.0" encoding="UTF-8" standalone="no"?>
<svg width="512px" height="512px" viewBox="0 0 512 512" version="1.1" xmlns="http://www.w3.org/2000/svg" xmlns:xlink="http://www.w3.org/1999/xlink">
    <!-- Generator: Sketch 3.8.3 (29802) - http://www.bohemiancoding.com/sketch -->
    <title>rubymine</title>
    <desc>Created with Sketch.</desc>
    <defs>
        <linearGradient x1="67.6846276%" y1="100.678161%" x2="37.1568938%" y2="13.7222222%" id="linearGradient-1">
            <stop stop-color="#FF1F51" offset="17.2%"></stop>
            <stop stop-color="#FF3648" offset="28%"></stop>
            <stop stop-color="#FF593B" offset="46.8%"></stop>
            <stop stop-color="#FF7231" offset="64.6%"></stop>
            <stop stop-color="#FF812B" offset="80.9%"></stop>
            <stop stop-color="#FF8629" offset="94.1%"></stop>
        </linearGradient>
        <linearGradient x1="61.4483516%" y1="22.5151515%" x2="43.5274725%" y2="91.7037037%" id="linearGradient-2">
            <stop stop-color="#9039D0" offset="2.2%"></stop>
            <stop stop-color="#FF1F51" offset="62.9%"></stop>
        </linearGradient>
        <linearGradient x1="0.524412297%" y1="8.01877934%" x2="81.8878843%" y2="97.5273865%" id="linearGradient-3">
            <stop stop-color="#9039D0" offset="10.7%"></stop>
            <stop stop-color="#FF1F51" offset="38.7%"></stop>
            <stop stop-color="#FF1F51" offset="62.9%"></stop>
            <stop stop-color="#FF3648" offset="66%"></stop>
            <stop stop-color="#FF593B" offset="71.4%"></stop>
            <stop stop-color="#FF7231" offset="76.5%"></stop>
            <stop stop-color="#FF812B" offset="81.2%"></stop>
            <stop stop-color="#FF8629" offset="85%"></stop>
        </linearGradient>
    </defs>
    <g id="Page-1" stroke="none" stroke-width="1" fill="none" fill-rule="evenodd">
        <g id="jetbrains" transform="translate(-1074.000000, 0.000000)">
            <g id="rubymine" transform="translate(1074.000000, 0.000000)">
                <g>
                    <g>
                        <polyline id="Shape" fill="url(#linearGradient-1)" points="425.691429 0 279.405714 52.6628571 163.84 0 50.4685714 284.525714 180.662857 232.594286 178.468571 376.685714 457.142857 381.805714 512 100.205714"></polyline>
                        <polyline id="Shape" fill="url(#linearGradient-2)" points="371.565714 166.034286 187.245714 45.3485714 38.7657143 136.777143 364.251429 262.582857"></polyline>
                        <polyline id="Shape" fill="url(#linearGradient-3)" points="212.845714 498.834286 404.48 473.234286 343.771429 356.205714 384 307.2 388.388571 277.211429 187.245714 44.6171429 0 90.6971429 0 359.131429 108.251429 512 212.845714 498.834286"></polyline>
                        <g id="Group" transform="translate(95.085714, 95.085714)">
                            <polygon id="Shape" fill="#000000" points="2.92571429 2.92571429 318.902857 2.92571429 318.902857 318.902857 2.92571429 318.902857"></polygon>
                            <path d="M32.9142857,259.657143 L151.405714,259.657143 L151.405714,279.405714 L32.9142857,279.405714 L32.9142857,259.657143 Z M157.988571,43.8857143 L189.44,43.8857143 L223.817143,99.4742857 L258.194286,43.8857143 L289.645714,43.8857143 L289.645714,174.811429 L260.388571,174.811429 L260.388571,89.2342857 L223.817143,145.554286 L223.085714,145.554286 L186.514286,89.9657143 L186.514286,174.811429 L157.988571,174.811429 L157.988571,43.8857143 Z M32.1828571,43.8857143 L92.16,43.8857143 C108.982857,43.8857143 121.417143,48.2742857 130.194286,57.0514286 C137.508571,64.3657143 141.165714,74.6057143 141.165714,87.04 L141.165714,87.7714286 C141.165714,98.7428571 138.24,106.788571 133.12,113.371429 C128,119.954286 121.417143,125.074286 112.64,128 L144.822857,174.811429 L111.177143,174.811429 L84.1142857,134.582857 L59.9771429,134.582857 L59.9771429,174.811429 L31.4514286,174.811429 L31.4514286,43.8857143 L32.1828571,43.8857143 Z M90.6971429,107.52 C98.0114286,107.52 103.131429,106.057143 106.788571,102.4 C110.445714,98.7428571 112.64,94.3542857 112.64,89.2342857 L112.64,88.5028571 C112.64,81.92 110.445714,77.5314286 106.788571,74.6057143 C103.131429,71.68 97.28,70.2171429 89.9657143,70.2171429 L61.44,70.2171429 L61.44,107.52 L90.6971429,107.52 L90.6971429,107.52 Z" id="Shape" fill="#FFFFFF"></path>
                        </g>
                    </g>
                </g>
            </g>
        </g>
    </g>
</svg>