<?xml version="1.0" encoding="UTF-8" standalone="no"?>
<svg width="512px" height="512px" viewBox="0 0 512 512" version="1.1" xmlns="http://www.w3.org/2000/svg" xmlns:xlink="http://www.w3.org/1999/xlink">
    <!-- Generator: Sketch 3.8.3 (29802) - http://www.bohemiancoding.com/sketch -->
    <title>phpstorm</title>
    <desc>Created with Sketch.</desc>
    <defs>
        <linearGradient x1="1.40909091%" y1="144.141538%" x2="75.6237374%" y2="24.6953846%" id="linearGradient-1">
            <stop stop-color="#765AF8" offset="1.6%"></stop>
            <stop stop-color="#B345F1" offset="38.2%"></stop>
            <stop stop-color="#FA3293" offset="75.8%"></stop>
            <stop stop-color="#FF318C" offset="94.1%"></stop>
        </linearGradient>
        <linearGradient x1="9.75%" y1="86.9800499%" x2="114.542857%" y2="-9.67331671%" id="linearGradient-2">
            <stop stop-color="#765AF8" offset="1.6%"></stop>
            <stop stop-color="#B345F1" offset="38.2%"></stop>
            <stop stop-color="#FA3293" offset="75.8%"></stop>
            <stop stop-color="#FF318C" offset="94.1%"></stop>
        </linearGradient>
        <linearGradient x1="60.0354906%" y1="98.3799534%" x2="25.4154489%" y2="6.63869464%" id="linearGradient-3">
            <stop stop-color="#765AF8" offset="18.3%"></stop>
            <stop stop-color="#8655F6" offset="23.8%"></stop>
            <stop stop-color="#9F4CF3" offset="34.5%"></stop>
            <stop stop-color="#AE47F2" offset="44.3%"></stop>
            <stop stop-color="#B345F1" offset="52.2%"></stop>
        </linearGradient>
        <linearGradient x1="87.8007246%" y1="80.7583587%" x2="17.9311594%" y2="35.4346505%" id="linearGradient-4">
            <stop stop-color="#765AF8" offset="1.6%"></stop>
            <stop stop-color="#B345F1" offset="38.2%"></stop>
        </linearGradient>
    </defs>
    <g id="Page-1" stroke="none" stroke-width="1" fill="none" fill-rule="evenodd">
        <g id="jetbrains" transform="translate(-537.000000, 0.000000)">
            <g id="phpstorm" transform="translate(537.000000, 0.000000)">
                <g>
                    <g>
                        <polyline id="Shape" fill="url(#linearGradient-1)" points="289.645714 111.177143 265.508571 38.0342857 87.04 0 0 98.7428571 272.091429 237.714286"></polyline>
                        <polyline id="Shape" fill="url(#linearGradient-2)" points="204.8 302.811429 199.68 150.674286 0 98.7428571 49.0057143 392.045714 204.8 390.582857"></polyline>
                        <polyline id="Shape" fill="url(#linearGradient-3)" points="161.645714 299.885714 171.154286 179.2 315.977143 30.72 445.44 54.1257143 512 220.16 442.514286 288.914286 329.142857 270.628571 258.925714 344.502857"></polyline>
                        <polyline id="Shape" fill="url(#linearGradient-4)" points="315.977143 30.72 108.251429 215.04 148.48 452.022857 321.097143 512 512 397.897143"></polyline>
                        <g id="Group" transform="translate(95.085714, 95.085714)">
                            <polygon id="Shape" fill="#000000" points="2.92571429 2.92571429 318.902857 2.92571429 318.902857 318.902857 2.92571429 318.902857"></polygon>
                            <path d="M32.9142857,259.657143 L151.405714,259.657143 L151.405714,279.405714 L32.9142857,279.405714 L32.9142857,259.657143 Z M31.4514286,43.8857143 L84.8457143,43.8857143 C116.297143,43.8857143 135.314286,62.1714286 135.314286,89.2342857 L135.314286,89.9657143 C135.314286,120.685714 111.908571,136.045714 81.92,136.045714 L59.9771429,136.045714 L59.9771429,175.542857 L31.4514286,175.542857 L31.4514286,43.8857143 L31.4514286,43.8857143 Z M83.3828571,109.714286 C98.0114286,109.714286 106.057143,100.937143 106.057143,89.9657143 L106.057143,89.2342857 C106.057143,76.0685714 97.28,69.4857143 82.6514286,69.4857143 L60.7085714,69.4857143 L60.7085714,109.714286 L83.3828571,109.714286 L83.3828571,109.714286 Z M142.628571,156.525714 L159.451429,136.045714 C171.154286,145.554286 183.588571,152.137143 198.948571,152.137143 C210.651429,152.137143 217.965714,147.748571 217.965714,139.702857 L217.965714,138.971429 C217.965714,131.657143 213.577143,128 191.634286,122.148571 C165.302857,115.565714 147.748571,108.251429 147.748571,81.92 L147.748571,81.1885714 C147.748571,57.0514286 166.765714,41.6914286 193.828571,41.6914286 C212.845714,41.6914286 229.668571,47.5428571 242.834286,58.5142857 L227.474286,80.4571429 C215.771429,72.4114286 204.068571,67.2914286 193.097143,67.2914286 C182.125714,67.2914286 176.274286,72.4114286 176.274286,78.9942857 L176.274286,79.7257143 C176.274286,88.5028571 182.125714,91.4285714 204.8,97.28 C231.131429,104.594286 246.491429,114.102857 246.491429,136.777143 L246.491429,137.508571 C246.491429,163.84 226.742857,178.468571 198.217143,178.468571 C178.468571,177.737143 158.72,170.422857 142.628571,156.525714 L142.628571,156.525714 Z" id="Shape" fill="#FFFFFF"></path>
                        </g>
                    </g>
                </g>
            </g>
        </g>
    </g>
</svg>