<?xml version="1.0" encoding="UTF-8" standalone="no"?>
<svg width="512px" height="512px" viewBox="0 0 512 512" version="1.1" xmlns="http://www.w3.org/2000/svg" xmlns:xlink="http://www.w3.org/1999/xlink">
    <!-- Generator: Sketch 3.8.3 (29802) - http://www.bohemiancoding.com/sketch -->
    <title>webstorm</title>
    <desc>Created with Sketch.</desc>
    <defs>
        <linearGradient x1="41.7104825%" y1="1.94563662%" x2="71.8519135%" y2="95.2432046%" id="linearGradient-1">
            <stop stop-color="#00CDD7" offset="28.5%"></stop>
            <stop stop-color="#2086D7" offset="94.1%"></stop>
        </linearGradient>
        <linearGradient x1="22.5246548%" y1="15.0681115%" x2="82.9684418%" y2="84.630031%" id="linearGradient-2">
            <stop stop-color="#FFF045" offset="14%"></stop>
            <stop stop-color="#00CDD7" offset="36.6%"></stop>
        </linearGradient>
        <linearGradient x1="36.3%" y1="25.0684932%" x2="65.0428571%" y2="90.1552511%" id="linearGradient-3">
            <stop stop-color="#00CDD7" offset="28.5%"></stop>
            <stop stop-color="#2086D7" offset="94.1%"></stop>
        </linearGradient>
    </defs>
    <g id="Page-1" stroke="none" stroke-width="1" fill="none" fill-rule="evenodd">
        <g id="jetbrains" transform="translate(0.000000, -1074.000000)">
            <g id="webstorm" transform="translate(0.000000, 1074.000000)">
                <g>
                    <g>
                        <polyline id="Shape" fill="url(#linearGradient-1)" points="68.7542857 462.994286 0 53.3942857 128 0.731428571 209.188571 49.0057143 283.794286 8.77714286 439.588571 68.7542857 351.817143 512"></polyline>
                        <polyline id="Shape" fill="url(#linearGradient-2)" points="512 173.348571 446.171429 10.24 326.217143 0 141.165714 177.737143 190.902857 406.674286 283.794286 472.502857 512 336.457143 455.68 231.862857"></polyline>
                        <polyline id="Shape" fill="url(#linearGradient-3)" points="409.6 149.211429 455.68 231.862857 512 173.348571 471.04 71.68"></polyline>
                        <g id="Group" transform="translate(95.085714, 95.085714)">
                            <polygon id="Shape" fill="#000000" points="2.92571429 2.92571429 318.902857 2.92571429 318.902857 318.902857 2.92571429 318.902857"></polygon>
                            <path d="M32.9142857,259.657143 L151.405714,259.657143 L151.405714,279.405714 L32.9142857,279.405714 L32.9142857,259.657143 Z M187.977143,155.794286 L204.8,135.314286 C216.502857,144.822857 228.937143,151.405714 243.565714,151.405714 C255.268571,151.405714 261.851429,147.017143 261.851429,138.971429 L261.851429,138.24 C261.851429,130.925714 257.462857,127.268571 235.52,121.417143 C209.188571,114.834286 193.097143,107.52 193.097143,81.1885714 L193.097143,80.4571429 C193.097143,56.32 212.114286,40.96 238.445714,40.96 C257.462857,40.96 273.554286,46.8114286 286.72,57.7828571 L272.091429,79.7257143 C260.388571,71.68 249.417143,66.56 238.445714,66.56 C227.474286,66.56 221.622857,71.68 221.622857,78.2628571 L221.622857,78.9942857 C221.622857,87.7714286 227.474286,90.6971429 249.417143,96.5485714 C275.748571,103.862857 290.377143,113.371429 290.377143,136.045714 L290.377143,136.777143 C290.377143,163.108571 270.628571,177.737143 242.834286,177.737143 C223.085714,177.005714 203.337143,169.691429 187.977143,155.794286 L187.977143,155.794286 Z M162.377143,43.8857143 L142.628571,119.954286 L120.685714,43.8857143 L98.7428571,43.8857143 L76.0685714,119.954286 L56.32,43.8857143 L26.3314286,43.8857143 L63.6342857,174.811429 L87.7714286,174.811429 L109.714286,98.7428571 L130.925714,174.811429 L155.794286,174.811429 L193.097143,43.8857143 L162.377143,43.8857143 Z" id="Shape" fill="#FFFFFF"></path>
                        </g>
                    </g>
                </g>
            </g>
        </g>
    </g>
</svg>